# xmcd
#
# Track frame offsets: 
#        150
#        24425
#        39605
#        55695
#        69120
#        90017
#        104005
#        117967
#        141857
#        160170
#        174725
#        189672
#        207795
#        232700
#        245212
#        256450
#        274325
#        287860
#        304362
#        315462
#
# Disc length: 4445 seconds
#
# Revision: 24
# Processed by: cddbd v1.5.2PL0 Copyright (c) Steve Scherf et al.
# Submitted via: ExactAudioCopyFreeDBPlugin 1.0
#
DISCID=1b115b14
DTITLE=The Band - Music From Big Pink
DYEAR=1968
DGENRE=Rock
TTITLE0=Tears Of Rage
TTITLE1=To Kingdom Come
TTITLE2=In A Station
TTITLE3=Caledonia Mission
TTITLE4=The Weight
TTITLE5=We Can Talk
TTITLE6=Long Black Veil
TTITLE7=Chest Fever
TTITLE8=Lonesome Suzie
TTITLE9=This Wheel's On Fire
TTITLE10=I Shall Be Released
TTITLE11=Yazoo Street Scandal (Outtake)
TTITLE12=Tears Of Rage (Alternate Take)
TTITLE13=Katie's Been Gone (Outtake)
TTITLE14=If I Lose (Outtake)
TTITLE15=Long Distance Operator (Outtake)
TTITLE16=Lonesone Suzie (Alternate take)
TTITLE17=Orange Juice Blues (Blues for Breakfast) (Outtake-Demo)
TTITLE18=Key To The Highway (Outtake)
TTITLE19=Ferdinand The Imposter (Outtake–Demo)
EXTD=YEAR: 1968
EXTT0=
EXTT1=
EXTT2=
EXTT3=
EXTT4=
EXTT5=
EXTT6=
EXTT7=
EXTT8=
EXTT9=
EXTT10=
EXTT11=
EXTT12=
EXTT13=
EXTT14=
EXTT15=
EXTT16=
EXTT17=
EXTT18=
EXTT19=
PLAYORDER=
